# xmcd
# 
# Track frame offsets:
#     187
#     7642
#     18120
#     34735
#     50285
#     72332
#     81080
#     100717
#     112572
#     132867
#     153625
#     174340
# 
# Disc length: 2558
# 
# Revision: 0
# Processed by: cddbd v1.5.2PL0 Copyright (c) Steve Scherf et al.
# Submitted via: fre:ac v1.0.31
# 
DISCID=7b09fc0c
DTITLE=ロードス島戦記 - アレンジ・サウンド「ロードス島戦記Ⅱ-五色の魔竜-」
DYEAR=1992
DGENRE=Soundtrack
TTITLE0=湖底の記憶
TTITLE1=ロードスの危機
TTITLE2=飛翔
TTITLE3=地平の果て
TTITLE4=ラン・アウト
TTITLE5=バトル オブ ファイアー
TTITLE6=思い出のパヴァーヌ
TTITLE7=傭兵王
TTITLE8=闇の洞窟
TTITLE9=約束
TTITLE10=カオス「魔の城」
TTITLE11=追憶
EXTD=
EXTT0=
EXTT1=
EXTT2=
EXTT3=
EXTT4=
EXTT5=
EXTT6=
EXTT7=
EXTT8=
EXTT9=
EXTT10=
EXTT11=
PLAYORDER=
